<mxfile host="app.diagrams.net" agent="Mozilla/5.0 (Windows NT 10.0; Win64; x64) AppleWebKit/537.36 (KHTML, like Gecko) Chrome/137.0.0.0 Safari/537.36" version="27.1.5">
  <diagram name="OAuth2 Keycloak Flow" id="1lyy6dk26HAYInuWovnP">
    <mxGraphModel dx="980" dy="970" grid="1" gridSize="10" guides="1" tooltips="1" connect="1" arrows="1" fold="1" page="1" pageScale="1" pageWidth="827" pageHeight="1169" math="0" shadow="0">
      <root>
        <mxCell id="0" />
        <mxCell id="1" parent="0" />
        <mxCell id="DRl6FD_GMfhqHSkW8_ng-1" value="User" style="rounded=1;whiteSpace=wrap;html=1;" vertex="1" parent="1">
          <mxGeometry x="194" y="550" width="100" height="60" as="geometry" />
        </mxCell>
        <mxCell id="DRl6FD_GMfhqHSkW8_ng-2" value="Application" style="rounded=1;whiteSpace=wrap;html=1;" vertex="1" parent="1">
          <mxGeometry x="354" y="550" width="120" height="60" as="geometry" />
        </mxCell>
        <mxCell id="DRl6FD_GMfhqHSkW8_ng-3" value="Keycloak" style="rounded=1;whiteSpace=wrap;html=1;" vertex="1" parent="1">
          <mxGeometry x="354" y="430" width="120" height="60" as="geometry" />
        </mxCell>
        <mxCell id="DRl6FD_GMfhqHSkW8_ng-4" value="API" style="rounded=1;whiteSpace=wrap;html=1;" vertex="1" parent="1">
          <mxGeometry x="534" y="550" width="100" height="60" as="geometry" />
        </mxCell>
        <mxCell id="DRl6FD_GMfhqHSkW8_ng-5" value="(Access Token Storage)" style="rounded=1;whiteSpace=wrap;html=1;" vertex="1" parent="1">
          <mxGeometry x="334" y="680" width="160" height="60" as="geometry" />
        </mxCell>
        <mxCell id="DRl6FD_GMfhqHSkW8_ng-6" style="endArrow=block;html=1;" edge="1" parent="1" source="DRl6FD_GMfhqHSkW8_ng-1" target="DRl6FD_GMfhqHSkW8_ng-2">
          <mxGeometry relative="1" as="geometry" />
        </mxCell>
        <mxCell id="DRl6FD_GMfhqHSkW8_ng-7" value="Authenticate via OAuth2" style="endArrow=block;html=1;" edge="1" parent="1" source="DRl6FD_GMfhqHSkW8_ng-2" target="DRl6FD_GMfhqHSkW8_ng-3">
          <mxGeometry relative="1" as="geometry" />
        </mxCell>
        <mxCell id="DRl6FD_GMfhqHSkW8_ng-8" value="Token" style="endArrow=block;html=1;" edge="1" parent="1" source="DRl6FD_GMfhqHSkW8_ng-2" target="DRl6FD_GMfhqHSkW8_ng-5">
          <mxGeometry relative="1" as="geometry" />
        </mxCell>
        <mxCell id="DRl6FD_GMfhqHSkW8_ng-9" style="endArrow=block;html=1;" edge="1" parent="1" source="DRl6FD_GMfhqHSkW8_ng-2" target="DRl6FD_GMfhqHSkW8_ng-4">
          <mxGeometry relative="1" as="geometry" />
        </mxCell>
      </root>
    </mxGraphModel>
  </diagram>
</mxfile>
